<?xml version="1.0" encoding="UTF-8"?>
<svg version="1.1" viewBox="0 0 2048 2048" width="185" height="185" xmlns="http://www.w3.org/2000/svg">
<path transform="translate(468,824)" d="m0 0h6l-2 4-16 15-27 27-5 6-108 108-10 9-21 21-7 6 1 4 191 191 3 6h-392l-3-3-1-5v-368l1-19 334-1z" fill="#DB7173"/>
<path transform="translate(854,825)" d="m0 0h102l-2 4-7 7-8 7-16 17-7 7-7 8-8 8-7 8-24 24-7 8-16 16-1 2h-2v2h-2l-2 4-25 25-7 8-7 6-1 2h-2l-2 4 1 4 14 18 13 18 14 18 10 14 14 19 16 21 14 19 11 15 12 17 14 19 12 15 9 12 10 13 3 5v2h-103l-5-4-12-17-10-14-16-21-12-17-12-16-20-28-26-36-9-12-4-1-11 10-7 8-24 24-1 2-1 120-4 2-77 1-6-1-1-2v-392l1-1h86l1 1v169l10-9 14-14 7-8 9-10 14-15 15-16 9-10 14-15 16-17 11-12 12-13 14-15 8-8 5-6z" fill="#020302"/>
<path transform="translate(1062,913)" d="m0 0h41l24 4 18 6 18 8 18 11 13 10 11 10 11 14 9 14 8 16 6 15 5 19 2 16v28l-3 20-6 20-7 16-9 15-9 12-11 13-12 11-18 12-14 8-21 8-19 5-22 3h-35l-20-3-14-4-15-6-16-8-14-9-11-9-11-10-9-11-9-12-8-14-8-20-6-22-2-12v-31l4-22 6-20 6-14 10-17 8-11 11-12 8-8 13-10 19-11 17-8 19-6zm8 73-15 3-12 5-10 7-10 9-9 12-7 15-4 16-1 8v16l3 17 5 13 8 14 12 13 10 8 14 7 15 4 8 1h13l18-4 16-8 10-7 12-12 8-14 5-16 2-18-1-20-4-16-8-17-9-11-7-7-10-7-15-7-12-3-8-1z" fill="#020302"/>
<path transform="translate(1859,912)" d="m0 0h12l19 2 16 4 14 6 12 8 6 5v2h2l9 11 8 13 6 13 4 15 2 18 1 209-1 2-3 1h-81l-2-4-1-180-3-14-5-10-7-9-8-7-12-5-5-1h-21l-12 3-10 6-5 4-8 11-5 10-2 9-1 17-1 168-6 2h-77l-4-7v-260l1-36h85l2 6-2 29-1 4 7-3 13-13 14-11 11-7 15-7 11-3z" fill="#020302"/>
<path transform="translate(1271,840)" d="m0 0 84 1 1 1v76h68l4 2v67l-4 4h-68l1 136 2 13 4 5 11 4h22l14-3 11-4 5 1 1 1v53l-2 10-7 6-11 5-16 5-11 2-12 1h-28l-14-2-12-4-13-8-12-11-6-8-7-15-4-14-2-13-1-46v-115l-14 2h-17l-3-3-1-2-1-9v-59l33-1 2-1 1-76z" fill="#020302"/>
<path transform="translate(278,1024)" d="m0 0 7 6 185 185 3 6h-392l-3-3-1-5v-19h1v17l8-4 11-9 66-66 8-7 15-15 8-7 23-23 8-7 10-10 8-7 10-10h2v-2l8-7 10-9z" fill="#6564FE"/>
<path transform="translate(1453,808)" d="m0 0h80l6 2v409l-4 2h-81l-2-3v-408z" fill="#020302"/>
<path transform="translate(468,824)" d="m0 0h6l-2 4-16 15-27 27-5 6-108 108-10 9-21 21-7 6v5l-13 11-8 8h-2v2l-7 6-5 3h-3v2l-3 1-6-2v-2l-3-1v-2l-6-1-4-6-3-12-8-11-5-6-5-5-9-11-6-4-8-8-5-4-6-5-8-4-8-1-7 3-2-1 4-7 14-14 7-8 9-10 9-11 9-9 7-8 7-7 7-8 5-6h2l2-4 9-9 7-8 5-6h2l2-4 22-22 7-8 138-1z" fill="#FE8703"/>
<path transform="translate(1576,918)" d="m0 0h52l30 1 1 2v297l-3 3h-80l-4-4-1-5v-276l1-17z" fill="#020302"/>
<path transform="translate(78,826)" d="m0 0h196l-6 8-24 24-1 2h-2l-2 4-8 8-7 8-6 7h-2l-2 4-8 8-7 8-7 7-7 8-11 12-9 11-7 7-7 8-8 8-7 8-15 16-16 17-8 8-8 7-10 10-2 3v-192z" fill="#6564FE"/>
<path transform="translate(1571,808)" d="m0 0 90 1v38l-1 36-3 1h-86l-2-2v-58l1-15z" fill="#020302"/>
</svg>
